<?xml version="1.0" encoding="utf-8" standalone="no"?>
<!DOCTYPE svg PUBLIC "-//W3C//DTD SVG 1.1//EN"
  "http://www.w3.org/Graphics/SVG/1.1/DTD/svg11.dtd">
<svg xmlns:xlink="http://www.w3.org/1999/xlink" width="564.500312pt" height="276.574219pt" viewBox="0 0 564.500312 276.574219" xmlns="http://www.w3.org/2000/svg" version="1.1">
 <metadata>
  <rdf:RDF xmlns:dc="http://purl.org/dc/elements/1.1/" xmlns:cc="http://creativecommons.org/ns#" xmlns:rdf="http://www.w3.org/1999/02/22-rdf-syntax-ns#">
   <cc:Work>
    <dc:type rdf:resource="http://purl.org/dc/dcmitype/StillImage"/>
    <dc:date>2026-02-09T21:05:28.996128</dc:date>
    <dc:format>image/svg+xml</dc:format>
    <dc:creator>
     <cc:Agent>
      <dc:title>Matplotlib v3.10.8, https://matplotlib.org/</dc:title>
     </cc:Agent>
    </dc:creator>
   </cc:Work>
  </rdf:RDF>
 </metadata>
 <defs>
  <style type="text/css">*{stroke-linejoin: round; stroke-linecap: butt}</style>
 </defs>
 <g id="figure_1">
  <g id="patch_1">
   <path d="M 0 276.574219 
L 564.500312 276.574219 
L 564.500312 0 
L 0 0 
z
" style="fill: #ffffff"/>
  </g>
  <g id="axes_1">
   <g id="patch_2">
    <path d="M 44.840313 234.84 
L 557.300313 234.84 
L 557.300313 21.83625 
L 44.840313 21.83625 
z
" style="fill: #ffffff"/>
   </g>
   <g id="matplotlib.axis_1">
    <g id="xtick_1">
     <g id="text_1">
      <!-- Thur -->
      <g style="fill: #262626" transform="translate(97.590156 252.213594) scale(0.11 -0.11)">
       <defs>
        <path id="ArialMT-54" d="M 1659 0 
L 1659 4041 
L 150 4041 
L 150 4581 
L 3781 4581 
L 3781 4041 
L 2266 4041 
L 2266 0 
L 1659 0 
z
" transform="scale(0.015625)"/>
        <path id="ArialMT-68" d="M 422 0 
L 422 4581 
L 984 4581 
L 984 2938 
Q 1378 3394 1978 3394 
Q 2347 3394 2619 3248 
Q 2891 3103 3008 2847 
Q 3125 2591 3125 2103 
L 3125 0 
L 2563 0 
L 2563 2103 
Q 2563 2525 2380 2717 
Q 2197 2909 1863 2909 
Q 1613 2909 1392 2779 
Q 1172 2650 1078 2428 
Q 984 2206 984 1816 
L 984 0 
L 422 0 
z
" transform="scale(0.015625)"/>
        <path id="ArialMT-75" d="M 2597 0 
L 2597 488 
Q 2209 -75 1544 -75 
Q 1250 -75 995 37 
Q 741 150 617 320 
Q 494 491 444 738 
Q 409 903 409 1263 
L 409 3319 
L 972 3319 
L 972 1478 
Q 972 1038 1006 884 
Q 1059 663 1231 536 
Q 1403 409 1656 409 
Q 1909 409 2131 539 
Q 2353 669 2445 892 
Q 2538 1116 2538 1541 
L 2538 3319 
L 3100 3319 
L 3100 0 
L 2597 0 
z
" transform="scale(0.015625)"/>
        <path id="ArialMT-72" d="M 416 0 
L 416 3319 
L 922 3319 
L 922 2816 
Q 1116 3169 1280 3281 
Q 1444 3394 1641 3394 
Q 1925 3394 2219 3213 
L 2025 2691 
Q 1819 2813 1613 2813 
Q 1428 2813 1281 2702 
Q 1134 2591 1072 2394 
Q 978 2094 978 1738 
L 978 0 
L 416 0 
z
" transform="scale(0.015625)"/>
       </defs>
       <use xlink:href="#ArialMT-54"/>
       <use xlink:href="#ArialMT-68" transform="translate(61.083984 0)"/>
       <use xlink:href="#ArialMT-75" transform="translate(116.699219 0)"/>
       <use xlink:href="#ArialMT-72" transform="translate(172.314453 0)"/>
      </g>
     </g>
    </g>
    <g id="xtick_2">
     <g id="text_2">
      <!-- Fri -->
      <g style="fill: #262626" transform="translate(230.600156 252.213594) scale(0.11 -0.11)">
       <defs>
        <path id="ArialMT-46" d="M 525 0 
L 525 4581 
L 3616 4581 
L 3616 4041 
L 1131 4041 
L 1131 2622 
L 3281 2622 
L 3281 2081 
L 1131 2081 
L 1131 0 
L 525 0 
z
" transform="scale(0.015625)"/>
        <path id="ArialMT-69" d="M 425 3934 
L 425 4581 
L 988 4581 
L 988 3934 
L 425 3934 
z
M 425 0 
L 425 3319 
L 988 3319 
L 988 0 
L 425 0 
z
" transform="scale(0.015625)"/>
       </defs>
       <use xlink:href="#ArialMT-46"/>
       <use xlink:href="#ArialMT-72" transform="translate(61.083984 0)"/>
       <use xlink:href="#ArialMT-69" transform="translate(94.384766 0)"/>
      </g>
     </g>
    </g>
    <g id="xtick_3">
     <g id="text_3">
      <!-- Sat -->
      <g style="fill: #262626" transform="translate(356.872656 252.213594) scale(0.11 -0.11)">
       <defs>
        <path id="ArialMT-53" d="M 288 1472 
L 859 1522 
Q 900 1178 1048 958 
Q 1197 738 1509 602 
Q 1822 466 2213 466 
Q 2559 466 2825 569 
Q 3091 672 3220 851 
Q 3350 1031 3350 1244 
Q 3350 1459 3225 1620 
Q 3100 1781 2813 1891 
Q 2628 1963 1997 2114 
Q 1366 2266 1113 2400 
Q 784 2572 623 2826 
Q 463 3081 463 3397 
Q 463 3744 659 4045 
Q 856 4347 1234 4503 
Q 1613 4659 2075 4659 
Q 2584 4659 2973 4495 
Q 3363 4331 3572 4012 
Q 3781 3694 3797 3291 
L 3216 3247 
Q 3169 3681 2898 3903 
Q 2628 4125 2100 4125 
Q 1550 4125 1298 3923 
Q 1047 3722 1047 3438 
Q 1047 3191 1225 3031 
Q 1400 2872 2139 2705 
Q 2878 2538 3153 2413 
Q 3553 2228 3743 1945 
Q 3934 1663 3934 1294 
Q 3934 928 3725 604 
Q 3516 281 3123 101 
Q 2731 -78 2241 -78 
Q 1619 -78 1198 103 
Q 778 284 539 648 
Q 300 1013 288 1472 
z
" transform="scale(0.015625)"/>
        <path id="ArialMT-61" d="M 2588 409 
Q 2275 144 1986 34 
Q 1697 -75 1366 -75 
Q 819 -75 525 192 
Q 231 459 231 875 
Q 231 1119 342 1320 
Q 453 1522 633 1644 
Q 813 1766 1038 1828 
Q 1203 1872 1538 1913 
Q 2219 1994 2541 2106 
Q 2544 2222 2544 2253 
Q 2544 2597 2384 2738 
Q 2169 2928 1744 2928 
Q 1347 2928 1158 2789 
Q 969 2650 878 2297 
L 328 2372 
Q 403 2725 575 2942 
Q 747 3159 1072 3276 
Q 1397 3394 1825 3394 
Q 2250 3394 2515 3294 
Q 2781 3194 2906 3042 
Q 3031 2891 3081 2659 
Q 3109 2516 3109 2141 
L 3109 1391 
Q 3109 606 3145 398 
Q 3181 191 3288 0 
L 2700 0 
Q 2613 175 2588 409 
z
M 2541 1666 
Q 2234 1541 1622 1453 
Q 1275 1403 1131 1340 
Q 988 1278 909 1158 
Q 831 1038 831 891 
Q 831 666 1001 516 
Q 1172 366 1500 366 
Q 1825 366 2078 508 
Q 2331 650 2450 897 
Q 2541 1088 2541 1459 
L 2541 1666 
z
" transform="scale(0.015625)"/>
        <path id="ArialMT-74" d="M 1650 503 
L 1731 6 
Q 1494 -44 1306 -44 
Q 1000 -44 831 53 
Q 663 150 594 308 
Q 525 466 525 972 
L 525 2881 
L 113 2881 
L 113 3319 
L 525 3319 
L 525 4141 
L 1084 4478 
L 1084 3319 
L 1650 3319 
L 1650 2881 
L 1084 2881 
L 1084 941 
Q 1084 700 1114 631 
Q 1144 563 1211 522 
Q 1278 481 1403 481 
Q 1497 481 1650 503 
z
" transform="scale(0.015625)"/>
       </defs>
       <use xlink:href="#ArialMT-53"/>
       <use xlink:href="#ArialMT-61" transform="translate(66.699219 0)"/>
       <use xlink:href="#ArialMT-74" transform="translate(122.314453 0)"/>
      </g>
     </g>
    </g>
    <g id="xtick_4">
     <g id="text_4">
      <!-- Sun -->
      <g style="fill: #262626" transform="translate(483.457109 252.213594) scale(0.11 -0.11)">
       <defs>
        <path id="ArialMT-6e" d="M 422 0 
L 422 3319 
L 928 3319 
L 928 2847 
Q 1294 3394 1984 3394 
Q 2284 3394 2536 3286 
Q 2788 3178 2913 3003 
Q 3038 2828 3088 2588 
Q 3119 2431 3119 2041 
L 3119 0 
L 2556 0 
L 2556 2019 
Q 2556 2363 2490 2533 
Q 2425 2703 2258 2804 
Q 2091 2906 1866 2906 
Q 1506 2906 1245 2678 
Q 984 2450 984 1813 
L 984 0 
L 422 0 
z
" transform="scale(0.015625)"/>
       </defs>
       <use xlink:href="#ArialMT-53"/>
       <use xlink:href="#ArialMT-75" transform="translate(66.699219 0)"/>
       <use xlink:href="#ArialMT-6e" transform="translate(122.314453 0)"/>
      </g>
     </g>
    </g>
    <g id="text_5">
     <!-- Día -->
     <g style="fill: #262626" transform="translate(291.73375 266.989219) scale(0.12 -0.12)">
      <defs>
       <path id="ArialMT-44" d="M 494 0 
L 494 4581 
L 2072 4581 
Q 2606 4581 2888 4516 
Q 3281 4425 3559 4188 
Q 3922 3881 4101 3404 
Q 4281 2928 4281 2316 
Q 4281 1794 4159 1391 
Q 4038 988 3847 723 
Q 3656 459 3429 307 
Q 3203 156 2883 78 
Q 2563 0 2147 0 
L 494 0 
z
M 1100 541 
L 2078 541 
Q 2531 541 2789 625 
Q 3047 709 3200 863 
Q 3416 1078 3536 1442 
Q 3656 1806 3656 2325 
Q 3656 3044 3420 3430 
Q 3184 3816 2847 3947 
Q 2603 4041 2063 4041 
L 1100 4041 
L 1100 541 
z
" transform="scale(0.015625)"/>
       <path id="ArialMT-ed" d="M 619 0 
L 619 3319 
L 1181 3319 
L 1181 0 
L 619 0 
z
M 590 3731 
L 1005 4606 
L 1743 4606 
L 1055 3731 
L 590 3731 
z
" transform="scale(0.015625)"/>
      </defs>
      <use xlink:href="#ArialMT-44"/>
      <use xlink:href="#ArialMT-ed" transform="translate(72.216797 0)"/>
      <use xlink:href="#ArialMT-61" transform="translate(100 0)"/>
     </g>
    </g>
   </g>
   <g id="matplotlib.axis_2">
    <g id="ytick_1">
     <g id="line2d_1">
      <path d="M 44.840313 203.642481 
L 557.300313 203.642481 
" clip-path="url(#p0432e0dee6)" style="fill: none; stroke: #cccccc; stroke-linecap: round"/>
     </g>
     <g id="text_6">
      <!-- 2 -->
      <g style="fill: #262626" transform="translate(29.223281 207.579278) scale(0.11 -0.11)">
       <defs>
        <path id="ArialMT-32" d="M 3222 541 
L 3222 0 
L 194 0 
Q 188 203 259 391 
Q 375 700 629 1000 
Q 884 1300 1366 1694 
Q 2113 2306 2375 2664 
Q 2638 3022 2638 3341 
Q 2638 3675 2398 3904 
Q 2159 4134 1775 4134 
Q 1369 4134 1125 3890 
Q 881 3647 878 3216 
L 300 3275 
Q 359 3922 746 4261 
Q 1134 4600 1788 4600 
Q 2447 4600 2831 4234 
Q 3216 3869 3216 3328 
Q 3216 3053 3103 2787 
Q 2991 2522 2730 2228 
Q 2469 1934 1863 1422 
Q 1356 997 1212 845 
Q 1069 694 975 541 
L 3222 541 
z
" transform="scale(0.015625)"/>
       </defs>
       <use xlink:href="#ArialMT-32"/>
      </g>
     </g>
    </g>
    <g id="ytick_2">
     <g id="line2d_2">
      <path d="M 44.840313 160.61142 
L 557.300313 160.61142 
" clip-path="url(#p0432e0dee6)" style="fill: none; stroke: #cccccc; stroke-linecap: round"/>
     </g>
     <g id="text_7">
      <!-- 4 -->
      <g style="fill: #262626" transform="translate(29.223281 164.548217) scale(0.11 -0.11)">
       <defs>
        <path id="ArialMT-34" d="M 2069 0 
L 2069 1097 
L 81 1097 
L 81 1613 
L 2172 4581 
L 2631 4581 
L 2631 1613 
L 3250 1613 
L 3250 1097 
L 2631 1097 
L 2631 0 
L 2069 0 
z
M 2069 1613 
L 2069 3678 
L 634 1613 
L 2069 1613 
z
" transform="scale(0.015625)"/>
       </defs>
       <use xlink:href="#ArialMT-34"/>
      </g>
     </g>
    </g>
    <g id="ytick_3">
     <g id="line2d_3">
      <path d="M 44.840313 117.58036 
L 557.300313 117.58036 
" clip-path="url(#p0432e0dee6)" style="fill: none; stroke: #cccccc; stroke-linecap: round"/>
     </g>
     <g id="text_8">
      <!-- 6 -->
      <g style="fill: #262626" transform="translate(29.223281 121.517157) scale(0.11 -0.11)">
       <defs>
        <path id="ArialMT-36" d="M 3184 3459 
L 2625 3416 
Q 2550 3747 2413 3897 
Q 2184 4138 1850 4138 
Q 1581 4138 1378 3988 
Q 1113 3794 959 3422 
Q 806 3050 800 2363 
Q 1003 2672 1297 2822 
Q 1591 2972 1913 2972 
Q 2475 2972 2870 2558 
Q 3266 2144 3266 1488 
Q 3266 1056 3080 686 
Q 2894 316 2569 119 
Q 2244 -78 1831 -78 
Q 1128 -78 684 439 
Q 241 956 241 2144 
Q 241 3472 731 4075 
Q 1159 4600 1884 4600 
Q 2425 4600 2770 4297 
Q 3116 3994 3184 3459 
z
M 888 1484 
Q 888 1194 1011 928 
Q 1134 663 1356 523 
Q 1578 384 1822 384 
Q 2178 384 2434 671 
Q 2691 959 2691 1453 
Q 2691 1928 2437 2201 
Q 2184 2475 1800 2475 
Q 1419 2475 1153 2201 
Q 888 1928 888 1484 
z
" transform="scale(0.015625)"/>
       </defs>
       <use xlink:href="#ArialMT-36"/>
      </g>
     </g>
    </g>
    <g id="ytick_4">
     <g id="line2d_4">
      <path d="M 44.840313 74.549299 
L 557.300313 74.549299 
" clip-path="url(#p0432e0dee6)" style="fill: none; stroke: #cccccc; stroke-linecap: round"/>
     </g>
     <g id="text_9">
      <!-- 8 -->
      <g style="fill: #262626" transform="translate(29.223281 78.486096) scale(0.11 -0.11)">
       <defs>
        <path id="ArialMT-38" d="M 1131 2484 
Q 781 2613 612 2850 
Q 444 3088 444 3419 
Q 444 3919 803 4259 
Q 1163 4600 1759 4600 
Q 2359 4600 2725 4251 
Q 3091 3903 3091 3403 
Q 3091 3084 2923 2848 
Q 2756 2613 2416 2484 
Q 2838 2347 3058 2040 
Q 3278 1734 3278 1309 
Q 3278 722 2862 322 
Q 2447 -78 1769 -78 
Q 1091 -78 675 323 
Q 259 725 259 1325 
Q 259 1772 486 2073 
Q 713 2375 1131 2484 
z
M 1019 3438 
Q 1019 3113 1228 2906 
Q 1438 2700 1772 2700 
Q 2097 2700 2305 2904 
Q 2513 3109 2513 3406 
Q 2513 3716 2298 3927 
Q 2084 4138 1766 4138 
Q 1444 4138 1231 3931 
Q 1019 3725 1019 3438 
z
M 838 1322 
Q 838 1081 952 856 
Q 1066 631 1291 507 
Q 1516 384 1775 384 
Q 2178 384 2440 643 
Q 2703 903 2703 1303 
Q 2703 1709 2433 1975 
Q 2163 2241 1756 2241 
Q 1359 2241 1098 1978 
Q 838 1716 838 1322 
z
" transform="scale(0.015625)"/>
       </defs>
       <use xlink:href="#ArialMT-38"/>
      </g>
     </g>
    </g>
    <g id="ytick_5">
     <g id="line2d_5">
      <path d="M 44.840313 31.518239 
L 557.300313 31.518239 
" clip-path="url(#p0432e0dee6)" style="fill: none; stroke: #cccccc; stroke-linecap: round"/>
     </g>
     <g id="text_10">
      <!-- 10 -->
      <g style="fill: #262626" transform="translate(23.10625 35.455036) scale(0.11 -0.11)">
       <defs>
        <path id="ArialMT-31" d="M 2384 0 
L 1822 0 
L 1822 3584 
Q 1619 3391 1289 3197 
Q 959 3003 697 2906 
L 697 3450 
Q 1169 3672 1522 3987 
Q 1875 4303 2022 4600 
L 2384 4600 
L 2384 0 
z
" transform="scale(0.015625)"/>
        <path id="ArialMT-30" d="M 266 2259 
Q 266 3072 433 3567 
Q 600 4063 929 4331 
Q 1259 4600 1759 4600 
Q 2128 4600 2406 4451 
Q 2684 4303 2865 4023 
Q 3047 3744 3150 3342 
Q 3253 2941 3253 2259 
Q 3253 1453 3087 958 
Q 2922 463 2592 192 
Q 2263 -78 1759 -78 
Q 1097 -78 719 397 
Q 266 969 266 2259 
z
M 844 2259 
Q 844 1131 1108 757 
Q 1372 384 1759 384 
Q 2147 384 2411 759 
Q 2675 1134 2675 2259 
Q 2675 3391 2411 3762 
Q 2147 4134 1753 4134 
Q 1366 4134 1134 3806 
Q 844 3388 844 2259 
z
" transform="scale(0.015625)"/>
       </defs>
       <use xlink:href="#ArialMT-31"/>
       <use xlink:href="#ArialMT-30" transform="translate(55.615234 0)"/>
      </g>
     </g>
    </g>
    <g id="text_11">
     <!-- Propina ($) -->
     <g style="fill: #262626" transform="translate(16.580625 158.016562) rotate(-90) scale(0.12 -0.12)">
      <defs>
       <path id="ArialMT-50" d="M 494 0 
L 494 4581 
L 2222 4581 
Q 2678 4581 2919 4538 
Q 3256 4481 3484 4323 
Q 3713 4166 3852 3881 
Q 3991 3597 3991 3256 
Q 3991 2672 3619 2267 
Q 3247 1863 2275 1863 
L 1100 1863 
L 1100 0 
L 494 0 
z
M 1100 2403 
L 2284 2403 
Q 2872 2403 3119 2622 
Q 3366 2841 3366 3238 
Q 3366 3525 3220 3729 
Q 3075 3934 2838 4000 
Q 2684 4041 2272 4041 
L 1100 4041 
L 1100 2403 
z
" transform="scale(0.015625)"/>
       <path id="ArialMT-6f" d="M 213 1659 
Q 213 2581 725 3025 
Q 1153 3394 1769 3394 
Q 2453 3394 2887 2945 
Q 3322 2497 3322 1706 
Q 3322 1066 3130 698 
Q 2938 331 2570 128 
Q 2203 -75 1769 -75 
Q 1072 -75 642 372 
Q 213 819 213 1659 
z
M 791 1659 
Q 791 1022 1069 705 
Q 1347 388 1769 388 
Q 2188 388 2466 706 
Q 2744 1025 2744 1678 
Q 2744 2294 2464 2611 
Q 2184 2928 1769 2928 
Q 1347 2928 1069 2612 
Q 791 2297 791 1659 
z
" transform="scale(0.015625)"/>
       <path id="ArialMT-70" d="M 422 -1272 
L 422 3319 
L 934 3319 
L 934 2888 
Q 1116 3141 1344 3267 
Q 1572 3394 1897 3394 
Q 2322 3394 2647 3175 
Q 2972 2956 3137 2557 
Q 3303 2159 3303 1684 
Q 3303 1175 3120 767 
Q 2938 359 2589 142 
Q 2241 -75 1856 -75 
Q 1575 -75 1351 44 
Q 1128 163 984 344 
L 984 -1272 
L 422 -1272 
z
M 931 1641 
Q 931 1000 1190 694 
Q 1450 388 1819 388 
Q 2194 388 2461 705 
Q 2728 1022 2728 1688 
Q 2728 2322 2467 2637 
Q 2206 2953 1844 2953 
Q 1484 2953 1207 2617 
Q 931 2281 931 1641 
z
" transform="scale(0.015625)"/>
       <path id="ArialMT-20" transform="scale(0.015625)"/>
       <path id="ArialMT-28" d="M 1497 -1347 
Q 1031 -759 709 28 
Q 388 816 388 1659 
Q 388 2403 628 3084 
Q 909 3875 1497 4659 
L 1900 4659 
Q 1522 4009 1400 3731 
Q 1209 3300 1100 2831 
Q 966 2247 966 1656 
Q 966 153 1900 -1347 
L 1497 -1347 
z
" transform="scale(0.015625)"/>
       <path id="ArialMT-24" d="M 1594 -659 
L 1594 -97 
Q 1172 -44 908 92 
Q 644 228 451 531 
Q 259 834 228 1272 
L 794 1378 
Q 859 925 1025 713 
Q 1263 413 1594 378 
L 1594 2169 
Q 1247 2234 884 2438 
Q 616 2588 470 2853 
Q 325 3119 325 3456 
Q 325 4056 750 4428 
Q 1034 4678 1594 4734 
L 1594 5003 
L 1925 5003 
L 1925 4734 
Q 2416 4688 2703 4447 
Q 3072 4141 3147 3606 
L 2566 3519 
Q 2516 3850 2358 4026 
Q 2200 4203 1925 4259 
L 1925 2638 
Q 2350 2531 2488 2472 
Q 2750 2356 2915 2190 
Q 3081 2025 3170 1797 
Q 3259 1569 3259 1303 
Q 3259 719 2887 328 
Q 2516 -63 1925 -91 
L 1925 -659 
L 1594 -659 
z
M 1594 4266 
Q 1266 4216 1077 4003 
Q 888 3791 888 3500 
Q 888 3213 1048 3019 
Q 1209 2825 1594 2709 
L 1594 4266 
z
M 1925 378 
Q 2253 419 2467 662 
Q 2681 906 2681 1266 
Q 2681 1572 2529 1758 
Q 2378 1944 1925 2091 
L 1925 378 
z
" transform="scale(0.015625)"/>
       <path id="ArialMT-29" d="M 791 -1347 
L 388 -1347 
Q 1322 153 1322 1656 
Q 1322 2244 1188 2822 
Q 1081 3291 891 3722 
Q 769 4003 388 4659 
L 791 4659 
Q 1378 3875 1659 3084 
Q 1900 2403 1900 1659 
Q 1900 816 1576 28 
Q 1253 -759 791 -1347 
z
" transform="scale(0.015625)"/>
      </defs>
      <use xlink:href="#ArialMT-50"/>
      <use xlink:href="#ArialMT-72" transform="translate(66.699219 0)"/>
      <use xlink:href="#ArialMT-6f" transform="translate(100 0)"/>
      <use xlink:href="#ArialMT-70" transform="translate(155.615234 0)"/>
      <use xlink:href="#ArialMT-69" transform="translate(211.230469 0)"/>
      <use xlink:href="#ArialMT-6e" transform="translate(233.447266 0)"/>
      <use xlink:href="#ArialMT-61" transform="translate(289.0625 0)"/>
      <use xlink:href="#ArialMT-20" transform="translate(344.677734 0)"/>
      <use xlink:href="#ArialMT-28" transform="translate(372.460938 0)"/>
      <use xlink:href="#ArialMT-24" transform="translate(405.761719 0)"/>
      <use xlink:href="#ArialMT-29" transform="translate(461.376953 0)"/>
     </g>
    </g>
   </g>
   <g id="patch_3">
    <path d="M 108.897813 246.673542 
L 108.897813 246.673542 
L 108.897813 246.673542 
L 108.897813 246.673542 
z
" clip-path="url(#p0432e0dee6)" style="fill: #176d9c; stroke: #363636; stroke-linejoin: miter"/>
   </g>
   <g id="patch_4">
    <path d="M 108.897813 246.673542 
L 108.897813 246.673542 
L 108.897813 246.673542 
L 108.897813 246.673542 
z
" clip-path="url(#p0432e0dee6)" style="fill: #c38820; stroke: #363636; stroke-linejoin: miter"/>
   </g>
   <g id="patch_5">
    <path d="M 69.662594 203.642481 
L 103.292781 203.642481 
L 103.292781 160.61142 
L 69.662594 160.61142 
L 69.662594 203.642481 
z
" clip-path="url(#p0432e0dee6)" style="fill: #176d9c; stroke: #363636; stroke-linejoin: miter"/>
   </g>
   <g id="line2d_6">
    <path d="M 86.477688 203.642481 
L 86.477688 215.691178 
" clip-path="url(#p0432e0dee6)" style="fill: none; stroke: #363636"/>
   </g>
   <g id="line2d_7">
    <path d="M 86.477688 160.61142 
L 86.477688 102.519489 
" clip-path="url(#p0432e0dee6)" style="fill: none; stroke: #363636"/>
   </g>
   <g id="line2d_8">
    <path d="M 78.070141 215.691178 
L 94.885234 215.691178 
" clip-path="url(#p0432e0dee6)" style="fill: none; stroke: #363636; stroke-linecap: round"/>
   </g>
   <g id="line2d_9">
    <path d="M 78.070141 102.519489 
L 94.885234 102.519489 
" clip-path="url(#p0432e0dee6)" style="fill: none; stroke: #363636; stroke-linecap: round"/>
   </g>
   <g id="line2d_10"/>
   <g id="patch_6">
    <path d="M 197.777594 210.850184 
L 231.407781 210.850184 
L 231.407781 174.058627 
L 197.777594 174.058627 
L 197.777594 210.850184 
z
" clip-path="url(#p0432e0dee6)" style="fill: #176d9c; stroke: #363636; stroke-linejoin: miter"/>
   </g>
   <g id="line2d_11">
    <path d="M 214.592688 210.850184 
L 214.592688 214.400246 
" clip-path="url(#p0432e0dee6)" style="fill: none; stroke: #363636"/>
   </g>
   <g id="line2d_12">
    <path d="M 214.592688 174.058627 
L 214.592688 144.905083 
" clip-path="url(#p0432e0dee6)" style="fill: none; stroke: #363636"/>
   </g>
   <g id="line2d_13">
    <path d="M 206.185141 214.400246 
L 223.000234 214.400246 
" clip-path="url(#p0432e0dee6)" style="fill: none; stroke: #363636; stroke-linecap: round"/>
   </g>
   <g id="line2d_14">
    <path d="M 206.185141 144.905083 
L 223.000234 144.905083 
" clip-path="url(#p0432e0dee6)" style="fill: none; stroke: #363636; stroke-linecap: round"/>
   </g>
   <g id="line2d_15"/>
   <g id="patch_7">
    <path d="M 325.892594 203.642481 
L 359.522781 203.642481 
L 359.522781 173.520739 
L 325.892594 173.520739 
L 325.892594 203.642481 
z
" clip-path="url(#p0432e0dee6)" style="fill: #176d9c; stroke: #363636; stroke-linejoin: miter"/>
   </g>
   <g id="line2d_16">
    <path d="M 342.707688 203.642481 
L 342.707688 225.158011 
" clip-path="url(#p0432e0dee6)" style="fill: none; stroke: #363636"/>
   </g>
   <g id="line2d_17">
    <path d="M 342.707688 173.520739 
L 342.707688 135.653405 
" clip-path="url(#p0432e0dee6)" style="fill: none; stroke: #363636"/>
   </g>
   <g id="line2d_18">
    <path d="M 334.300141 225.158011 
L 351.115234 225.158011 
" clip-path="url(#p0432e0dee6)" style="fill: none; stroke: #363636; stroke-linecap: round"/>
   </g>
   <g id="line2d_19">
    <path d="M 334.300141 135.653405 
L 351.115234 135.653405 
" clip-path="url(#p0432e0dee6)" style="fill: none; stroke: #363636; stroke-linecap: round"/>
   </g>
   <g id="line2d_20">
    <defs>
     <path id="m3d80ba0d1e" d="M 0 3 
C 0.795609 3 1.55874 2.683901 2.12132 2.12132 
C 2.683901 1.55874 3 0.795609 3 0 
C 3 -0.795609 2.683901 -1.55874 2.12132 -2.12132 
C 1.55874 -2.683901 0.795609 -3 0 -3 
C -0.795609 -3 -1.55874 -2.683901 -2.12132 -2.12132 
C -2.683901 -1.55874 -3 -0.795609 -3 0 
C -3 0.795609 -2.683901 1.55874 -2.12132 2.12132 
C -1.55874 2.683901 -0.795609 3 0 3 
z
" style="stroke: #363636"/>
    </defs>
    <g clip-path="url(#p0432e0dee6)">
     <use xlink:href="#m3d80ba0d1e" x="342.707688" y="83.585822" style="fill-opacity: 0; stroke: #363636"/>
     <use xlink:href="#m3d80ba0d1e" x="342.707688" y="101.874023" style="fill-opacity: 0; stroke: #363636"/>
     <use xlink:href="#m3d80ba0d1e" x="342.707688" y="31.518239" style="fill-opacity: 0; stroke: #363636"/>
     <use xlink:href="#m3d80ba0d1e" x="342.707688" y="53.033769" style="fill-opacity: 0; stroke: #363636"/>
     <use xlink:href="#m3d80ba0d1e" x="342.707688" y="119.301602" style="fill-opacity: 0; stroke: #363636"/>
    </g>
   </g>
   <g id="patch_8">
    <path d="M 454.007594 203.642481 
L 487.637781 203.642481 
L 487.637781 161.041731 
L 454.007594 161.041731 
L 454.007594 203.642481 
z
" clip-path="url(#p0432e0dee6)" style="fill: #176d9c; stroke: #363636; stroke-linejoin: miter"/>
   </g>
   <g id="line2d_21">
    <path d="M 470.822688 203.642481 
L 470.822688 218.273042 
" clip-path="url(#p0432e0dee6)" style="fill: none; stroke: #363636"/>
   </g>
   <g id="line2d_22">
    <path d="M 470.822688 161.041731 
L 470.822688 106.822595 
" clip-path="url(#p0432e0dee6)" style="fill: none; stroke: #363636"/>
   </g>
   <g id="line2d_23">
    <path d="M 462.415141 218.273042 
L 479.230234 218.273042 
" clip-path="url(#p0432e0dee6)" style="fill: none; stroke: #363636; stroke-linecap: round"/>
   </g>
   <g id="line2d_24">
    <path d="M 462.415141 106.822595 
L 479.230234 106.822595 
" clip-path="url(#p0432e0dee6)" style="fill: none; stroke: #363636; stroke-linecap: round"/>
   </g>
   <g id="line2d_25"/>
   <g id="patch_9">
    <path d="M 114.502844 207.461488 
L 148.133031 207.461488 
L 148.133031 180.889808 
L 114.502844 180.889808 
L 114.502844 207.461488 
z
" clip-path="url(#p0432e0dee6)" style="fill: #c38820; stroke: #363636; stroke-linejoin: miter"/>
   </g>
   <g id="line2d_26">
    <path d="M 131.317937 207.461488 
L 131.317937 219.779129 
" clip-path="url(#p0432e0dee6)" style="fill: none; stroke: #363636"/>
   </g>
   <g id="line2d_27">
    <path d="M 131.317937 180.889808 
L 131.317937 156.308314 
" clip-path="url(#p0432e0dee6)" style="fill: none; stroke: #363636"/>
   </g>
   <g id="line2d_28">
    <path d="M 122.910391 219.779129 
L 139.725484 219.779129 
" clip-path="url(#p0432e0dee6)" style="fill: none; stroke: #363636; stroke-linecap: round"/>
   </g>
   <g id="line2d_29">
    <path d="M 122.910391 156.308314 
L 139.725484 156.308314 
" clip-path="url(#p0432e0dee6)" style="fill: none; stroke: #363636; stroke-linecap: round"/>
   </g>
   <g id="line2d_30">
    <g clip-path="url(#p0432e0dee6)">
     <use xlink:href="#m3d80ba0d1e" x="131.317937" y="135.43825" style="fill-opacity: 0; stroke: #363636"/>
     <use xlink:href="#m3d80ba0d1e" x="131.317937" y="139.09589" style="fill-opacity: 0; stroke: #363636"/>
     <use xlink:href="#m3d80ba0d1e" x="131.317937" y="139.09589" style="fill-opacity: 0; stroke: #363636"/>
    </g>
   </g>
   <g id="patch_10">
    <path d="M 242.617844 192.884716 
L 276.248031 192.884716 
L 276.248031 176.748068 
L 242.617844 176.748068 
L 242.617844 192.884716 
z
" clip-path="url(#p0432e0dee6)" style="fill: #c38820; stroke: #363636; stroke-linejoin: miter"/>
   </g>
   <g id="line2d_31">
    <path d="M 259.432937 192.884716 
L 259.432937 203.642481 
" clip-path="url(#p0432e0dee6)" style="fill: none; stroke: #363636"/>
   </g>
   <g id="line2d_32">
    <path d="M 259.432937 176.748068 
L 259.432937 154.156761 
" clip-path="url(#p0432e0dee6)" style="fill: none; stroke: #363636"/>
   </g>
   <g id="line2d_33">
    <path d="M 251.025391 203.642481 
L 267.840484 203.642481 
" clip-path="url(#p0432e0dee6)" style="fill: none; stroke: #363636; stroke-linecap: round"/>
   </g>
   <g id="line2d_34">
    <path d="M 251.025391 154.156761 
L 267.840484 154.156761 
" clip-path="url(#p0432e0dee6)" style="fill: none; stroke: #363636; stroke-linecap: round"/>
   </g>
   <g id="line2d_35">
    <g clip-path="url(#p0432e0dee6)">
     <use xlink:href="#m3d80ba0d1e" x="259.432937" y="225.158011" style="fill-opacity: 0; stroke: #363636"/>
    </g>
   </g>
   <g id="patch_11">
    <path d="M 370.732844 200.415152 
L 404.363031 200.415152 
L 404.363031 179.921609 
L 370.732844 179.921609 
L 370.732844 200.415152 
z
" clip-path="url(#p0432e0dee6)" style="fill: #c38820; stroke: #363636; stroke-linejoin: miter"/>
   </g>
   <g id="line2d_36">
    <path d="M 387.547937 200.415152 
L 387.547937 225.158011 
" clip-path="url(#p0432e0dee6)" style="fill: none; stroke: #363636"/>
   </g>
   <g id="line2d_37">
    <path d="M 387.547937 179.921609 
L 387.547937 158.890178 
" clip-path="url(#p0432e0dee6)" style="fill: none; stroke: #363636"/>
   </g>
   <g id="line2d_38">
    <path d="M 379.140391 225.158011 
L 395.955484 225.158011 
" clip-path="url(#p0432e0dee6)" style="fill: none; stroke: #363636; stroke-linecap: round"/>
   </g>
   <g id="line2d_39">
    <path d="M 379.140391 158.890178 
L 395.955484 158.890178 
" clip-path="url(#p0432e0dee6)" style="fill: none; stroke: #363636; stroke-linecap: round"/>
   </g>
   <g id="line2d_40">
    <g clip-path="url(#p0432e0dee6)">
     <use xlink:href="#m3d80ba0d1e" x="387.547937" y="139.09589" style="fill-opacity: 0; stroke: #363636"/>
     <use xlink:href="#m3d80ba0d1e" x="387.547937" y="106.822595" style="fill-opacity: 0; stroke: #363636"/>
     <use xlink:href="#m3d80ba0d1e" x="387.547937" y="146.196015" style="fill-opacity: 0; stroke: #363636"/>
    </g>
   </g>
   <g id="patch_12">
    <path d="M 498.847844 188.420243 
L 532.478031 188.420243 
L 532.478031 161.956141 
L 498.847844 161.956141 
L 498.847844 188.420243 
z
" clip-path="url(#p0432e0dee6)" style="fill: #c38820; stroke: #363636; stroke-linejoin: miter"/>
   </g>
   <g id="line2d_41">
    <path d="M 515.662937 188.420243 
L 515.662937 224.942856 
" clip-path="url(#p0432e0dee6)" style="fill: none; stroke: #363636"/>
   </g>
   <g id="line2d_42">
    <path d="M 515.662937 161.956141 
L 515.662937 134.792784 
" clip-path="url(#p0432e0dee6)" style="fill: none; stroke: #363636"/>
   </g>
   <g id="line2d_43">
    <path d="M 507.255391 224.942856 
L 524.070484 224.942856 
" clip-path="url(#p0432e0dee6)" style="fill: none; stroke: #363636; stroke-linecap: round"/>
   </g>
   <g id="line2d_44">
    <path d="M 507.255391 134.792784 
L 524.070484 134.792784 
" clip-path="url(#p0432e0dee6)" style="fill: none; stroke: #363636; stroke-linecap: round"/>
   </g>
   <g id="line2d_45"/>
   <g id="line2d_46">
    <path d="M 69.662594 192.23925 
L 103.292781 192.23925 
" clip-path="url(#p0432e0dee6)" style="fill: none; stroke: #363636"/>
   </g>
   <g id="line2d_47">
    <path d="M 197.777594 190.733163 
L 231.407781 190.733163 
" clip-path="url(#p0432e0dee6)" style="fill: none; stroke: #363636"/>
   </g>
   <g id="line2d_48">
    <path d="M 325.892594 182.126951 
L 359.522781 182.126951 
" clip-path="url(#p0432e0dee6)" style="fill: none; stroke: #363636"/>
   </g>
   <g id="line2d_49">
    <path d="M 454.007594 180.298131 
L 487.637781 180.298131 
" clip-path="url(#p0432e0dee6)" style="fill: none; stroke: #363636"/>
   </g>
   <g id="line2d_50">
    <path d="M 114.502844 203.534903 
L 148.133031 203.534903 
" clip-path="url(#p0432e0dee6)" style="fill: none; stroke: #363636"/>
   </g>
   <g id="line2d_51">
    <path d="M 242.617844 182.126951 
L 276.248031 182.126951 
" clip-path="url(#p0432e0dee6)" style="fill: none; stroke: #363636"/>
   </g>
   <g id="line2d_52">
    <path d="M 370.732844 190.195275 
L 404.363031 190.195275 
" clip-path="url(#p0432e0dee6)" style="fill: none; stroke: #363636"/>
   </g>
   <g id="line2d_53">
    <path d="M 498.847844 171.369186 
L 532.478031 171.369186 
" clip-path="url(#p0432e0dee6)" style="fill: none; stroke: #363636"/>
   </g>
   <g id="patch_13">
    <path d="M 44.840313 234.84 
L 44.840313 21.83625 
" style="fill: none; stroke: #cccccc; stroke-width: 1.25; stroke-linejoin: miter; stroke-linecap: square"/>
   </g>
   <g id="patch_14">
    <path d="M 557.300313 234.84 
L 557.300313 21.83625 
" style="fill: none; stroke: #cccccc; stroke-width: 1.25; stroke-linejoin: miter; stroke-linecap: square"/>
   </g>
   <g id="patch_15">
    <path d="M 44.840313 234.84 
L 557.300313 234.84 
" style="fill: none; stroke: #cccccc; stroke-width: 1.25; stroke-linejoin: miter; stroke-linecap: square"/>
   </g>
   <g id="patch_16">
    <path d="M 44.840313 21.83625 
L 557.300313 21.83625 
" style="fill: none; stroke: #cccccc; stroke-width: 1.25; stroke-linejoin: miter; stroke-linecap: square"/>
   </g>
   <g id="text_12">
    <!-- Distribución de propinas por día y sexo -->
    <g style="fill: #262626" transform="translate(197.354688 15.83625) scale(0.12 -0.12)">
     <defs>
      <path id="ArialMT-73" d="M 197 991 
L 753 1078 
Q 800 744 1014 566 
Q 1228 388 1613 388 
Q 2000 388 2187 545 
Q 2375 703 2375 916 
Q 2375 1106 2209 1216 
Q 2094 1291 1634 1406 
Q 1016 1563 777 1677 
Q 538 1791 414 1992 
Q 291 2194 291 2438 
Q 291 2659 392 2848 
Q 494 3038 669 3163 
Q 800 3259 1026 3326 
Q 1253 3394 1513 3394 
Q 1903 3394 2198 3281 
Q 2494 3169 2634 2976 
Q 2775 2784 2828 2463 
L 2278 2388 
Q 2241 2644 2061 2787 
Q 1881 2931 1553 2931 
Q 1166 2931 1000 2803 
Q 834 2675 834 2503 
Q 834 2394 903 2306 
Q 972 2216 1119 2156 
Q 1203 2125 1616 2013 
Q 2213 1853 2448 1751 
Q 2684 1650 2818 1456 
Q 2953 1263 2953 975 
Q 2953 694 2789 445 
Q 2625 197 2315 61 
Q 2006 -75 1616 -75 
Q 969 -75 630 194 
Q 291 463 197 991 
z
" transform="scale(0.015625)"/>
      <path id="ArialMT-62" d="M 941 0 
L 419 0 
L 419 4581 
L 981 4581 
L 981 2947 
Q 1338 3394 1891 3394 
Q 2197 3394 2470 3270 
Q 2744 3147 2920 2923 
Q 3097 2700 3197 2384 
Q 3297 2069 3297 1709 
Q 3297 856 2875 390 
Q 2453 -75 1863 -75 
Q 1275 -75 941 416 
L 941 0 
z
M 934 1684 
Q 934 1088 1097 822 
Q 1363 388 1816 388 
Q 2184 388 2453 708 
Q 2722 1028 2722 1663 
Q 2722 2313 2464 2622 
Q 2206 2931 1841 2931 
Q 1472 2931 1203 2611 
Q 934 2291 934 1684 
z
" transform="scale(0.015625)"/>
      <path id="ArialMT-63" d="M 2588 1216 
L 3141 1144 
Q 3050 572 2676 248 
Q 2303 -75 1759 -75 
Q 1078 -75 664 370 
Q 250 816 250 1647 
Q 250 2184 428 2587 
Q 606 2991 970 3192 
Q 1334 3394 1763 3394 
Q 2303 3394 2647 3120 
Q 2991 2847 3088 2344 
L 2541 2259 
Q 2463 2594 2264 2762 
Q 2066 2931 1784 2931 
Q 1359 2931 1093 2626 
Q 828 2322 828 1663 
Q 828 994 1084 691 
Q 1341 388 1753 388 
Q 2084 388 2306 591 
Q 2528 794 2588 1216 
z
" transform="scale(0.015625)"/>
      <path id="ArialMT-f3" d="M 213 1659 
Q 213 2581 725 3025 
Q 1153 3394 1769 3394 
Q 2453 3394 2887 2945 
Q 3322 2497 3322 1706 
Q 3322 1066 3130 698 
Q 2938 331 2570 128 
Q 2203 -75 1769 -75 
Q 1072 -75 642 372 
Q 213 819 213 1659 
z
M 791 1659 
Q 791 1022 1069 705 
Q 1347 388 1769 388 
Q 2188 388 2466 706 
Q 2744 1025 2744 1678 
Q 2744 2294 2464 2611 
Q 2184 2928 1769 2928 
Q 1347 2928 1069 2612 
Q 791 2297 791 1659 
z
M 1454 3731 
L 1869 4606 
L 2607 4606 
L 1919 3731 
L 1454 3731 
z
" transform="scale(0.015625)"/>
      <path id="ArialMT-64" d="M 2575 0 
L 2575 419 
Q 2259 -75 1647 -75 
Q 1250 -75 917 144 
Q 584 363 401 755 
Q 219 1147 219 1656 
Q 219 2153 384 2558 
Q 550 2963 881 3178 
Q 1213 3394 1622 3394 
Q 1922 3394 2156 3267 
Q 2391 3141 2538 2938 
L 2538 4581 
L 3097 4581 
L 3097 0 
L 2575 0 
z
M 797 1656 
Q 797 1019 1065 703 
Q 1334 388 1700 388 
Q 2069 388 2326 689 
Q 2584 991 2584 1609 
Q 2584 2291 2321 2609 
Q 2059 2928 1675 2928 
Q 1300 2928 1048 2622 
Q 797 2316 797 1656 
z
" transform="scale(0.015625)"/>
      <path id="ArialMT-65" d="M 2694 1069 
L 3275 997 
Q 3138 488 2766 206 
Q 2394 -75 1816 -75 
Q 1088 -75 661 373 
Q 234 822 234 1631 
Q 234 2469 665 2931 
Q 1097 3394 1784 3394 
Q 2450 3394 2872 2941 
Q 3294 2488 3294 1666 
Q 3294 1616 3291 1516 
L 816 1516 
Q 847 969 1125 678 
Q 1403 388 1819 388 
Q 2128 388 2347 550 
Q 2566 713 2694 1069 
z
M 847 1978 
L 2700 1978 
Q 2663 2397 2488 2606 
Q 2219 2931 1791 2931 
Q 1403 2931 1139 2672 
Q 875 2413 847 1978 
z
" transform="scale(0.015625)"/>
      <path id="ArialMT-79" d="M 397 -1278 
L 334 -750 
Q 519 -800 656 -800 
Q 844 -800 956 -737 
Q 1069 -675 1141 -563 
Q 1194 -478 1313 -144 
Q 1328 -97 1363 -6 
L 103 3319 
L 709 3319 
L 1400 1397 
Q 1534 1031 1641 628 
Q 1738 1016 1872 1384 
L 2581 3319 
L 3144 3319 
L 1881 -56 
Q 1678 -603 1566 -809 
Q 1416 -1088 1222 -1217 
Q 1028 -1347 759 -1347 
Q 597 -1347 397 -1278 
z
" transform="scale(0.015625)"/>
      <path id="ArialMT-78" d="M 47 0 
L 1259 1725 
L 138 3319 
L 841 3319 
L 1350 2541 
Q 1494 2319 1581 2169 
Q 1719 2375 1834 2534 
L 2394 3319 
L 3066 3319 
L 1919 1756 
L 3153 0 
L 2463 0 
L 1781 1031 
L 1600 1309 
L 728 0 
L 47 0 
z
" transform="scale(0.015625)"/>
     </defs>
     <use xlink:href="#ArialMT-44"/>
     <use xlink:href="#ArialMT-69" transform="translate(72.216797 0)"/>
     <use xlink:href="#ArialMT-73" transform="translate(94.433594 0)"/>
     <use xlink:href="#ArialMT-74" transform="translate(144.433594 0)"/>
     <use xlink:href="#ArialMT-72" transform="translate(172.216797 0)"/>
     <use xlink:href="#ArialMT-69" transform="translate(205.517578 0)"/>
     <use xlink:href="#ArialMT-62" transform="translate(227.734375 0)"/>
     <use xlink:href="#ArialMT-75" transform="translate(283.349609 0)"/>
     <use xlink:href="#ArialMT-63" transform="translate(338.964844 0)"/>
     <use xlink:href="#ArialMT-69" transform="translate(388.964844 0)"/>
     <use xlink:href="#ArialMT-f3" transform="translate(411.181641 0)"/>
     <use xlink:href="#ArialMT-6e" transform="translate(466.796875 0)"/>
     <use xlink:href="#ArialMT-20" transform="translate(522.412109 0)"/>
     <use xlink:href="#ArialMT-64" transform="translate(550.195312 0)"/>
     <use xlink:href="#ArialMT-65" transform="translate(605.810547 0)"/>
     <use xlink:href="#ArialMT-20" transform="translate(661.425781 0)"/>
     <use xlink:href="#ArialMT-70" transform="translate(689.208984 0)"/>
     <use xlink:href="#ArialMT-72" transform="translate(744.824219 0)"/>
     <use xlink:href="#ArialMT-6f" transform="translate(778.125 0)"/>
     <use xlink:href="#ArialMT-70" transform="translate(833.740234 0)"/>
     <use xlink:href="#ArialMT-69" transform="translate(889.355469 0)"/>
     <use xlink:href="#ArialMT-6e" transform="translate(911.572266 0)"/>
     <use xlink:href="#ArialMT-61" transform="translate(967.1875 0)"/>
     <use xlink:href="#ArialMT-73" transform="translate(1022.802734 0)"/>
     <use xlink:href="#ArialMT-20" transform="translate(1072.802734 0)"/>
     <use xlink:href="#ArialMT-70" transform="translate(1100.585938 0)"/>
     <use xlink:href="#ArialMT-6f" transform="translate(1156.201172 0)"/>
     <use xlink:href="#ArialMT-72" transform="translate(1211.816406 0)"/>
     <use xlink:href="#ArialMT-20" transform="translate(1245.117188 0)"/>
     <use xlink:href="#ArialMT-64" transform="translate(1272.900391 0)"/>
     <use xlink:href="#ArialMT-ed" transform="translate(1328.515625 0)"/>
     <use xlink:href="#ArialMT-61" transform="translate(1356.298828 0)"/>
     <use xlink:href="#ArialMT-20" transform="translate(1411.914062 0)"/>
     <use xlink:href="#ArialMT-79" transform="translate(1439.697266 0)"/>
     <use xlink:href="#ArialMT-20" transform="translate(1489.697266 0)"/>
     <use xlink:href="#ArialMT-73" transform="translate(1517.480469 0)"/>
     <use xlink:href="#ArialMT-65" transform="translate(1567.480469 0)"/>
     <use xlink:href="#ArialMT-78" transform="translate(1623.095703 0)"/>
     <use xlink:href="#ArialMT-6f" transform="translate(1673.095703 0)"/>
    </g>
   </g>
   <g id="legend_1">
    <g id="patch_17">
     <path d="M 477.723906 78.230312 
L 549.600312 78.230312 
Q 551.800313 78.230312 551.800313 76.030313 
L 551.800313 29.53625 
Q 551.800313 27.33625 549.600312 27.33625 
L 477.723906 27.33625 
Q 475.523906 27.33625 475.523906 29.53625 
L 475.523906 76.030313 
Q 475.523906 78.230312 477.723906 78.230312 
z
" style="fill: #ffffff; opacity: 0.8; stroke: #cccccc; stroke-linejoin: miter"/>
    </g>
    <g id="text_13">
     <!-- sex -->
     <g style="fill: #262626" transform="translate(504.325547 40.325625) scale(0.12 -0.12)">
      <use xlink:href="#ArialMT-73"/>
      <use xlink:href="#ArialMT-65" transform="translate(50 0)"/>
      <use xlink:href="#ArialMT-78" transform="translate(105.615234 0)"/>
     </g>
    </g>
    <g id="patch_18">
     <path d="M 479.923906 56.084219 
L 501.923906 56.084219 
L 501.923906 48.384219 
L 479.923906 48.384219 
z
" style="fill: #176d9c; stroke: #363636; stroke-linejoin: miter"/>
    </g>
    <g id="text_14">
     <!-- Male -->
     <g style="fill: #262626" transform="translate(510.723906 56.084219) scale(0.11 -0.11)">
      <defs>
       <path id="ArialMT-4d" d="M 475 0 
L 475 4581 
L 1388 4581 
L 2472 1338 
Q 2622 884 2691 659 
Q 2769 909 2934 1394 
L 4031 4581 
L 4847 4581 
L 4847 0 
L 4263 0 
L 4263 3834 
L 2931 0 
L 2384 0 
L 1059 3900 
L 1059 0 
L 475 0 
z
" transform="scale(0.015625)"/>
       <path id="ArialMT-6c" d="M 409 0 
L 409 4581 
L 972 4581 
L 972 0 
L 409 0 
z
" transform="scale(0.015625)"/>
      </defs>
      <use xlink:href="#ArialMT-4d"/>
      <use xlink:href="#ArialMT-61" transform="translate(83.300781 0)"/>
      <use xlink:href="#ArialMT-6c" transform="translate(138.916016 0)"/>
      <use xlink:href="#ArialMT-65" transform="translate(161.132812 0)"/>
     </g>
    </g>
    <g id="patch_19">
     <path d="M 479.923906 71.644062 
L 501.923906 71.644062 
L 501.923906 63.944062 
L 479.923906 63.944062 
z
" style="fill: #c38820; stroke: #363636; stroke-linejoin: miter"/>
    </g>
    <g id="text_15">
     <!-- Female -->
     <g style="fill: #262626" transform="translate(510.723906 71.644062) scale(0.11 -0.11)">
      <defs>
       <path id="ArialMT-6d" d="M 422 0 
L 422 3319 
L 925 3319 
L 925 2853 
Q 1081 3097 1340 3245 
Q 1600 3394 1931 3394 
Q 2300 3394 2536 3241 
Q 2772 3088 2869 2813 
Q 3263 3394 3894 3394 
Q 4388 3394 4653 3120 
Q 4919 2847 4919 2278 
L 4919 0 
L 4359 0 
L 4359 2091 
Q 4359 2428 4304 2576 
Q 4250 2725 4106 2815 
Q 3963 2906 3769 2906 
Q 3419 2906 3187 2673 
Q 2956 2441 2956 1928 
L 2956 0 
L 2394 0 
L 2394 2156 
Q 2394 2531 2256 2718 
Q 2119 2906 1806 2906 
Q 1569 2906 1367 2781 
Q 1166 2656 1075 2415 
Q 984 2175 984 1722 
L 984 0 
L 422 0 
z
" transform="scale(0.015625)"/>
      </defs>
      <use xlink:href="#ArialMT-46"/>
      <use xlink:href="#ArialMT-65" transform="translate(61.083984 0)"/>
      <use xlink:href="#ArialMT-6d" transform="translate(116.699219 0)"/>
      <use xlink:href="#ArialMT-61" transform="translate(200 0)"/>
      <use xlink:href="#ArialMT-6c" transform="translate(255.615234 0)"/>
      <use xlink:href="#ArialMT-65" transform="translate(277.832031 0)"/>
     </g>
    </g>
   </g>
  </g>
 </g>
 <defs>
  <clipPath id="p0432e0dee6">
   <rect x="44.840313" y="21.83625" width="512.46" height="213.00375"/>
  </clipPath>
 </defs>
</svg>
